<svg width="160" height="160" viewBox="0 0 160 160" fill="none" xmlns="http://www.w3.org/2000/svg">
  <defs>
    <linearGradient id="bgKualitas" x1="14" y1="12" x2="148" y2="148" gradientUnits="userSpaceOnUse">
      <stop stop-color="#FFF9EE"/>
      <stop offset="1" stop-color="#FFE9C3"/>
    </linearGradient>
    <linearGradient id="trayKualitas" x1="80" y1="82" x2="80" y2="120" gradientUnits="userSpaceOnUse">
      <stop stop-color="#EF3A24"/>
      <stop offset="1" stop-color="#B40F14"/>
    </linearGradient>
  </defs>
  <rect x="12" y="12" width="136" height="136" rx="28" fill="url(#bgKualitas)"/>
  <circle cx="80" cy="80" r="42" fill="#FFF4DB"/>
  <ellipse cx="80" cy="98" rx="35" ry="20.5" fill="url(#trayKualitas)"/>
  <ellipse cx="80" cy="95.5" rx="31" ry="17" fill="#F4C253"/>
  <path d="M66 82.5C69 75.6 74.6 71.7 81.7 71.2C89.2 70.7 95.8 74.5 99.1 80.8C95.9 82.6 93.4 85.3 92 88.8C90.3 93.2 87.9 97.5 81.2 98.5C73.1 99.7 65.5 92.4 66 82.5Z" fill="#CF4B37"/>
  <path d="M73.5 84.6C74.8 81 77.6 78.7 81.2 78.2C85.2 77.7 88.9 79.3 91.2 82.3C89 83.8 87.2 85.9 86.3 88.4C85.1 91.6 83.2 94.4 79 95.1C74.1 95.9 69.3 91.4 73.5 84.6Z" fill="#EFAE93"/>
  <circle cx="111" cy="55" r="10" fill="#F2C426"/>
  <path d="M107 55.3L110.2 58.2L115.3 53.3" stroke="#B40F14" stroke-width="3" stroke-linecap="round" stroke-linejoin="round"/>
</svg>
