<svg width="160" height="160" viewBox="0 0 160 160" fill="none" xmlns="http://www.w3.org/2000/svg">
  <defs>
    <linearGradient id="bgTrans" x1="14" y1="12" x2="148" y2="148" gradientUnits="userSpaceOnUse">
      <stop stop-color="#FFF9EE"/>
      <stop offset="1" stop-color="#FFE9C3"/>
    </linearGradient>
    <linearGradient id="docTrans" x1="80" y1="50" x2="80" y2="112" gradientUnits="userSpaceOnUse">
      <stop stop-color="#EF3A24"/>
      <stop offset="1" stop-color="#B40F14"/>
    </linearGradient>
  </defs>
  <rect x="12" y="12" width="136" height="136" rx="28" fill="url(#bgTrans)"/>
  <circle cx="80" cy="80" r="42" fill="#FFF4DB"/>
  <rect x="55" y="54" width="50" height="60" rx="9" fill="url(#docTrans)"/>
  <rect x="62" y="64" width="36" height="7" rx="3.5" fill="#FFD98F"/>
  <rect x="62" y="78" width="28" height="6" rx="3" fill="#FFD98F"/>
  <rect x="62" y="88" width="21" height="6" rx="3" fill="#FFD98F"/>
  <path d="M54 101C59 95 67 92 80 92C93 92 101 95 106 101C101 107 93 110 80 110C67 110 59 107 54 101Z" fill="#F2C426"/>
  <circle cx="80" cy="101" r="6" fill="#B40F14"/>
  <circle cx="80" cy="101" r="2.8" fill="#FFD98F"/>
  <circle cx="111" cy="55" r="10" fill="#F2C426"/>
  <path d="M107 55.3L110.2 58.2L115.3 53.3" stroke="#B40F14" stroke-width="3" stroke-linecap="round" stroke-linejoin="round"/>
</svg>
