<svg width="24" height="24" viewBox="0 0 24 24" fill="none" xmlns="http://www.w3.org/2000/svg">
  <rect width="24" height="24" rx="12" fill="#E4F2E8"/>
  <path d="M8.4 6.6C8.8 6.2 9.4 6.2 9.9 6.5L11.4 7.5C11.9 7.8 12.1 8.4 11.9 8.9L11.4 10.3C11.3 10.6 11.3 11 11.5 11.3C12.1 12.1 12.8 12.8 13.6 13.4C13.9 13.6 14.3 13.6 14.6 13.5L16 13C16.5 12.8 17.1 13 17.4 13.5L18.4 15C18.7 15.5 18.7 16.1 18.3 16.5L17.5 17.3C16.9 17.9 15.9 18.1 15.1 17.7C12.7 16.6 10.8 14.7 9.7 12.3C9.3 11.5 9.5 10.5 10.1 9.9L10.9 9.1L9.8 8.4L8.9 9.3C8.6 9.6 8.2 9.6 7.9 9.3C7.6 9 7.6 8.6 7.9 8.3L8.4 7.8V6.6Z" fill="#2F8F68"/>
</svg>
